<svg xmlns="http://www.w3.org/2000/svg" viewBox="0 0 520 384" width="520" height="384" role="img" aria-label="Greenways by Texas Greener Pastures"><title>Greenways by Texas Greener Pastures</title><g transform="translate(160.0 0)"><defs><clipPath id="s-c"><circle cx="100" cy="100" r="85.5"/></clipPath></defs><circle cx="100" cy="100" r="98" fill="#34452D"/><g clip-path="url(#s-c)"><g transform="translate(0,-16)"><rect x="-10" y="-10" width="220" height="240" fill="#34452D"/><path d="M-4 116 C28 98 60 100 90 108 C120 116 150 94 204 102 L204 204 L-4 204 Z" fill="#4A5E3E"/><path d="M-4 128 C40 114 82 118 118 113 C150 109 178 115 204 121 L204 204 L-4 204 Z" fill="#24301F"/><path d="M-4 136 C40 122.4 82 126 118 121 C150 117 178 123 204 129" fill="none" stroke="#34452D" stroke-width="1.0"/><path d="M-4 148 C40 135.0 82 138 118 133 C150 129 178 135 204 141" fill="none" stroke="#34452D" stroke-width="1.1"/><path d="M-4 164 C40 151.8 82 154 118 149 C150 145 178 151 204 157" fill="none" stroke="#34452D" stroke-width="1.25"/><path d="M-4 186 C40 174.9 82 176 118 171 C150 167 178 173 204 179" fill="none" stroke="#34452D" stroke-width="1.4"/><path d="M56.00 206.00 C55.17 201.33 49.83 186.33 51.00 178.00 C52.17 169.67 57.17 162.33 63.00 156.00 C68.83 149.67 79.25 144.67 86.00 140.00 C92.75 135.33 99.38 131.50 103.50 128.00 C107.62 124.50 109.13 121.25 110.75 119.00 C112.37 116.75 112.79 115.25 113.20 114.50 L113.80 114.50 C114.04 115.25 115.13 116.75 115.25 119.00 C115.37 121.25 116.04 124.50 114.50 128.00 C112.96 131.50 108.92 135.33 106.00 140.00 C103.08 144.67 96.50 149.67 97.00 156.00 C97.50 162.33 101.50 169.67 109.00 178.00 C116.50 186.33 136.50 201.33 142.00 206.00 Z" fill="#F5F3E9"/></g><path d="M113.50,48.50 L117.33,58.73 L128.24,59.21 L119.69,66.01 L122.61,76.54 L113.50,70.51 L104.39,76.54 L107.31,66.01 L98.76,59.21 L109.67,58.73Z" fill="#BCAA6E"/></g><circle cx="100" cy="100" r="89" fill="none" stroke="#BCAA6E" stroke-width="3"/></g><path d="M75.70800000000001 292.416H72.38000000000001V318.0H61.56400000000001L60.21200000000001 310.928Q57.092000000000006 314.568 52.25600000000001 316.804Q47.42000000000001 319.04 40.86800000000001 319.04Q26.620000000000008 319.04 18.248000000000008 309.15999999999997Q9.87600000000001 299.28 9.87600000000001 284.72Q9.87600000000001 270.16 18.716000000000008 259.76Q27.556000000000008 249.36 44.71600000000001 249.36Q52.93200000000001 249.36 59.640000000000015 251.752Q66.34800000000001 254.144 69.67600000000002 257.472L71.548 272.136L60.31600000000001 273.176L58.44400000000001 265.272Q55.74000000000001 263.504 51.632000000000005 262.568Q47.52400000000001 261.632 44.092000000000006 261.632Q35.772000000000006 261.632 30.31200000000001 267.24800000000005Q24.85200000000001 272.86400000000003 24.85200000000001 284.512Q24.85200000000001 295.744 30.00000000000001 301.25600000000003Q35.14800000000001 306.76800000000003 43.36400000000001 306.76800000000003Q50.22800000000001 306.76800000000003 54.284000000000006 303.12800000000004Q58.34000000000001 299.488 58.34000000000001 292.832V292.416H45.13200000000001V280.664H75.70800000000001ZM109.86000000000001 270.472Q111.83600000000001 270.472 114.28 271.044Q116.724 271.616 119.11600000000001 273.072L121.196 289.504L111.004 290.648L109.236 282.64Q107.156 281.392 105.596 281.392Q103.308 281.392 101.59200000000001 283.15999999999997Q99.876 284.928 99.876 288.36V307.912H108.196V318.0H80.22000000000001V307.912H86.46000000000001V281.288H79.7V271.096H98.83600000000001V280.04Q99.98 275.984 102.528 273.22799999999995Q105.07600000000001 270.472 109.86000000000001 270.472ZM170.22000000000003 303.232Q169.70000000000002 309.472 164.084 314.256Q158.46800000000002 319.04 148.38 319.04Q137.876 319.04 131.06400000000002 313.112Q124.25200000000001 307.184 124.25200000000001 295.432Q124.25200000000001 284.616 130.44 277.38800000000003Q136.62800000000001 270.16 147.756 270.16Q157.532 270.16 163.616 275.776Q169.70000000000002 281.392 169.804 290.544Q169.804 293.976 169.07600000000002 297.304H138.292Q139.436 308.432 149.316 308.432Q154.72400000000002 308.432 156.64800000000002 305.832Q158.572 303.232 158.988 301.152ZM155.972 289.504Q156.388 285.968 154.464 282.848Q152.54000000000002 279.728 147.756 279.728Q143.596 279.728 141.308 282.432Q139.02 285.136 138.39600000000002 289.504ZM219.452 303.232Q218.93200000000002 309.472 213.31600000000003 314.256Q207.70000000000002 319.04 197.61200000000002 319.04Q187.108 319.04 180.296 313.112Q173.484 307.184 173.484 295.432Q173.484 284.616 179.67200000000003 277.38800000000003Q185.86 270.16 196.988 270.16Q206.764 270.16 212.848 275.776Q218.93200000000002 281.392 219.036 290.544Q219.036 293.976 218.308 297.304H187.524Q188.668 308.432 198.548 308.432Q203.95600000000002 308.432 205.88 305.832Q207.804 303.232 208.22000000000003 301.152ZM205.204 289.504Q205.62 285.968 203.69600000000003 282.848Q201.77200000000002 279.728 196.988 279.728Q192.828 279.728 190.54000000000002 282.432Q188.252 285.136 187.62800000000001 289.504ZM280.956 318.0H255.06V307.912H261.3V291.584Q261.3 285.552 259.27200000000005 282.952Q257.244 280.352 253.292 280.352Q248.508 280.352 245.90800000000002 283.316Q243.30800000000002 286.28 243.204 291.064V307.912H249.44400000000002V318.0H223.548V307.912H229.788V281.288H223.02800000000002V271.096H243.204V278.272Q247.88400000000001 270.16 258.284 270.16Q264.94 270.16 269.828 274.112Q274.716 278.064 274.716 286.384V307.912H280.956ZM359.41200000000003 281.184H355.148L342.46000000000004 318.0H332.476L320.308 289.92H319.684L308.66 318.0H299.196L286.196 281.184H281.932V271.096H306.892V281.184H300.444L306.164 299.488H306.788L317.812 271.096H325.82L338.612 299.072H339.236L343.084 281.184H336.948V271.096H359.41200000000003ZM366.316 274.424Q372.452 271.928 376.55999999999995 271.044Q380.66799999999995 270.16 386.388 270.16Q393.97999999999996 270.16 399.49199999999996 274.112Q405.00399999999996 278.064 405.00399999999996 286.072V306.456Q405.00399999999996 310.096 408.22799999999995 310.096Q409.164 310.096 410.20399999999995 309.784L410.308 316.856Q406.25199999999995 319.04 401.88399999999996 319.04Q392.628 319.04 391.58799999999997 309.784V309.68Q389.61199999999997 313.216 385.91999999999996 316.12800000000004Q382.22799999999995 319.04 376.508 319.04Q371.412 319.04 366.73199999999997 316.024Q362.05199999999996 313.008 362.05199999999996 305.624Q362.05199999999996 296.992 368.96799999999996 294.18399999999997Q375.88399999999996 291.376 383.892 291.376Q388.364 291.376 391.58799999999997 291.79200000000003V290.232Q391.58799999999997 286.592 390.59999999999997 283.15999999999997Q389.61199999999997 279.728 383.892 279.728Q381.81199999999995 279.728 380.096 279.988Q378.38 280.248 376.71599999999995 281.08L374.948 287.736L364.236 286.592ZM391.58799999999997 298.864V298.24Q389.924 298.032 388.20799999999997 297.82399999999996Q386.49199999999996 297.616 384.828 297.616Q381.292 297.616 378.58799999999997 298.916Q375.88399999999996 300.216 375.88399999999996 304.064Q375.88399999999996 306.352 377.13199999999995 307.912Q378.38 309.472 381.39599999999996 309.472Q384.93199999999996 309.472 388.0 306.924Q391.068 304.376 391.58799999999997 298.864ZM465.26 281.184H460.68399999999997L445.604 318.0L441.132 329.752H447.268V340.152H421.372V329.752H428.86L432.604 318.728L416.17199999999997 281.184H411.388V271.096H435.308V281.184H430.628L440.19599999999997 302.816H440.82L447.892 281.184H443.836V271.096H465.26ZM510.228 303.648Q510.228 311.448 504.03999999999996 315.244Q497.852 319.04 487.972 319.04Q482.876 319.04 477.72799999999995 317.948Q472.58 316.856 467.9 314.464L469.772 301.36L480.172 302.504V308.328Q482.044 308.952 484.124 309.108Q486.204 309.264 487.244 309.264Q491.092 309.264 493.9 308.016Q496.70799999999997 306.76800000000003 496.70799999999997 304.272Q496.70799999999997 301.256 492.44399999999996 300.32Q488.18 299.384 482.56399999999996 298.448Q476.948 297.512 472.68399999999997 294.6Q468.42 291.688 468.42 284.72Q468.42 276.088 475.12800000000004 273.124Q481.836 270.16 489.012 270.16Q498.372 270.16 506.588 274.424L507.73199999999997 286.384L497.332 287.528L496.5 280.976Q493.068 279.832 489.116 279.832Q486.516 279.832 484.696 280.924Q482.876 282.016 482.876 284.304Q482.876 287.32 486.984 288.308Q491.092 289.296 496.552 290.23199999999997Q502.012 291.168 506.12 294.028Q510.228 296.888 510.228 303.648Z" fill="#34452D"/><path d="M83.0688943248532 364.36Q82.02685909980428 364.36 81.1266242661448 364.06468688845405Q80.2263894324853 363.769373776908 79.5117808219178 363.19398238747556Q78.79717221135027 362.61859099804303 78.33732876712327 361.8287475538161L77.70685909980429 364.0H75.14797455968687V342.76H78.33732876712327V351.36156555772993Q78.79717221135027 350.5618786692759 79.5117808219178 349.9916438356164Q80.2263894324853 349.42140900195693 81.1266242661448 349.12117416829744Q82.02685909980428 348.82093933463796 83.0688943248532 348.82093933463796Q84.84779843444225 348.82093933463796 86.31264187866927 349.74086105675144Q87.77748532289627 350.660782778865 88.64772015655575 352.38578277886495Q89.51795499021524 354.110782778865 89.51795499021524 356.56093933463796Q89.51795499021524 359.01109589041096 88.64772015655575 360.75578277886495Q87.77748532289627 362.500469667319 86.31264187866927 363.4302348336595Q84.84779843444225 364.36 83.0688943248532 364.36ZM82.15296477495106 361.7472015655577Q83.87609589041094 361.7472015655577 84.9720352250489 360.3805577299413Q86.06797455968687 359.01391389432484 86.06797455968687 356.56093933463796Q86.06797455968687 354.0976516634051 84.9720352250489 352.76569471624265Q83.87609589041094 351.4337377690802 82.15296477495106 351.4337377690802Q80.41999021526416 351.4337377690802 79.3240508806262 352.7410861056751Q78.22811154598824 354.04843444227004 78.22811154598824 356.590469667319Q78.22811154598824 358.28172211350295 78.72850293542072 359.42828767123285Q79.22889432485321 360.5748532289628 80.11999021526418 361.1610273972602Q81.01108610567513 361.7472015655577 82.15296477495106 361.7472015655577ZM92.55139921722112 368.86V366.2856360078278H93.72233855185908Q94.62233855185907 366.2856360078278 95.13749510763208 366.1602446183953Q95.65265166340507 366.03485322896285 95.97280821917806 365.6338356164384Q96.29296477495106 365.2328180039139 96.54327788649704 364.44109589041096L96.69327788649704 363.99062622309197L91.21499999999997 349.12H94.6738845401174L98.18858121330722 359.8108023483366L101.50218199608608 349.12H104.9610665362035L99.5835714285714 364.4434442270059Q99.14435420743638 365.7123483365949 98.68990215264185 366.56664383561645Q98.23545009784733 367.420939334638 97.6410763209393 367.9255479452055Q97.04670254403129 368.430156555773 96.17740704500977 368.6450782778865Q95.30811154598824 368.86 94.00873776908021 368.86ZM121.78531311154596 364.0V346.96091976516635H115.194217221135V343.96H131.82638943248529V346.96091976516635H125.23529354207433V364.0ZM141.1617123287671 364.36Q138.8020254403131 364.36 137.10819960861056 363.35453033268107Q135.414373776908 362.34906066536206 134.50031311154595 360.58913894324854Q133.58625244618392 358.829217221135 133.58625244618392 356.55062622309197Q133.58625244618392 354.18062622309196 134.59054794520546 352.4507045009785Q135.594843444227 350.720782778865 137.28890410958903 349.77086105675147Q138.98296477495106 348.82093933463796 141.06233855185909 348.82093933463796Q142.8520254403131 348.82093933463796 144.2413992172211 349.51117416829743Q145.63077299412913 350.20140900195696 146.56006849315065 351.39625244618395Q147.4893639921722 352.59109589041094 147.9189726027397 354.1452348336595Q148.34858121330723 355.69937377690803 148.2187377690802 357.4173385518591H136.8267025440313Q136.9663894324853 358.670782778865 137.41217221135025 359.5028180039139Q137.85795499021523 360.3348532289628 138.4790508806262 360.8207142857143Q139.10014677103717 361.30657534246575 139.80116438356163 361.50673189823874Q140.50218199608608 361.70688845401173 141.1223385518591 361.70688845401173Q142.31343444227005 361.70688845401173 143.13890410958902 361.3314187866928Q143.964373776908 360.95594911937377 144.444843444227 360.3550097847358L147.26858121330721 361.2718786692759Q146.34045988258316 362.69968688845404 144.75679060665362 363.529843444227Q143.17312133072406 364.36 141.1617123287671 364.36ZM136.8370156555773 355.16125244618394H145.03687866927592Q145.0171917808219 354.14078277886495 144.5168003913894 353.28413894324854Q144.01640900195693 352.42749510763207 143.15015655577298 351.90600782778864Q142.28390410958903 351.3845205479452 141.1017123287671 351.3845205479452Q140.16092954990214 351.3845205479452 139.25483365949117 351.7400684931507Q138.3487377690802 352.09561643835616 137.70279843444223 352.9171037181996Q137.05685909980429 353.73859099804304 136.8370156555773 355.16125244618394ZM149.725 364.0 155.184530332681 356.31062622309196 150.05406066536202 349.12H153.6835714285714L156.9892074363992 353.7779843444227L160.30515655577298 349.12H163.93466731898238L158.8041976516634 356.31062622309196L164.2637279843444 364.0H160.634217221135L156.9892074363992 358.86342465753427L153.3545107632094 364.0ZM170.9965655577299 364.36Q169.5865655577299 364.36 168.40648727984342 363.8502348336595Q167.2264090019569 363.340469667319 166.52633072407042 362.385626223092Q165.82625244618393 361.43078277886497 165.82625244618393 360.08078277886494Q165.82625244618393 358.31078277886496 167.06117416829744 357.230782778865Q168.29609589041092 356.150782778865 170.58125244618392 355.5557045009785Q172.86640900195692 354.960626223092 175.9873483365949 354.690156555773V354.35125244618393Q175.9873483365949 352.869530332681 175.2066438356164 352.02741682974556Q174.42593933463792 351.1853033268102 172.82327788649704 351.1853033268102Q171.5909295499021 351.1853033268102 170.77506849315066 351.74124266144815Q169.9592074363992 352.2971819960861 169.7192074363992 353.31812133072407L166.8265655577299 352.3815655577299Q167.46593933463794 350.74046966731896 169.06999999999996 349.78070450097846Q170.674060665362 348.82093933463796 172.8415557729941 348.82093933463796Q175.98077299412913 348.82093933463796 177.50397260273968 350.2813307240705Q179.02717221135026 351.74172211350293 179.02717221135026 354.91V358.32109589041096Q179.02717221135026 359.4625048923679 179.09725048923676 360.5019569471624Q179.16732876712325 361.54140900195694 179.29740704500975 362.4205479452055Q179.42748532289625 363.299686888454 179.55732876712327 364.0H176.6173483365949L176.0370352250489 362.03874755381605Q175.33813111545984 363.16843444227004 174.08328767123282 363.764217221135Q172.82844422700583 364.36 170.9965655577299 364.36ZM171.94061643835613 361.9857925636008Q173.0520254403131 361.9857925636008 173.97359099804302 361.60516634050884Q174.89515655577296 361.22454011741684 175.4412524461839 360.3282876712329Q175.9873483365949 359.43203522504893 175.9873483365949 357.88V356.9265557729941Q172.78202544031308 357.1871819960861 171.01412915851267 357.8535127201566Q169.2462328767123 358.519843444227 169.2462328767123 359.93219178082194Q169.2462328767123 360.8537573385519 169.97725048923675 361.4197749510763Q170.7082681017612 361.9857925636008 171.94061643835613 361.9857925636008ZM188.86124266144813 364.369843444227Q187.41374755381602 364.369843444227 186.08999999999997 363.9500782778865Q184.76625244618393 363.530313111546 183.7617221135029 362.695469667319Q182.7571917808219 361.86062622309197 182.2373483365949 360.620313111546L185.1398336594912 359.5529745596869Q185.45014677103717 360.6845401174168 186.55077299412915 361.2702446183953Q187.65139921722113 361.8559491193738 188.90108610567512 361.8559491193738Q190.23327788649704 361.8559491193738 191.194217221135 361.31454011741687Q192.15515655577298 360.7731311154599 192.15515655577298 359.83140900195696Q192.15515655577298 359.02890410958906 191.47359099804305 358.57796477495106Q190.7920254403131 358.1270254403131 189.26014677103717 357.81624266144814L187.254373776908 357.4065557729941Q185.93531311154598 357.11639921722116 184.90078277886496 356.61179060665364Q183.86625244618395 356.1071819960861 183.27140900195695 355.2725733855186Q182.67656555772993 354.43796477495107 182.67656555772993 353.17749510763207Q182.67656555772993 351.78906066536206 183.52054794520546 350.80468688845406Q184.364530332681 349.820313111546 185.75319960861054 349.300469667319Q187.1418688845401 348.780626223092 188.77077299412915 348.780626223092Q190.7292074363992 348.780626223092 192.40779843444227 349.5505479452055Q194.0863894324853 350.320469667319 194.83545009784734 352.008904109589L191.97327788649704 353.05608610567515Q191.60296477495106 352.16545988258315 190.68163405088063 351.7250684931507Q189.76030332681017 351.2846771037182 188.62030332681016 351.2846771037182Q187.37999021526417 351.2846771037182 186.58850293542073 351.75553816046965Q185.7970156555773 352.2263992172211 185.7970156555773 353.0584344422701Q185.7970156555773 353.760156555773 186.35318982387474 354.1410176125245Q186.9093639921722 354.5218786692759 188.10092954990213 354.7825048923679L190.14607632093933 355.2020352250489Q191.78482387475538 355.5320352250489 192.92974559686888 356.0469569471624Q194.07466731898236 356.5618786692759 194.68005870841483 357.4168786692759Q195.28545009784733 358.2718786692759 195.28545009784733 359.6523483365949Q195.28545009784733 361.11062622309197 194.4213111545988 362.175156555773Q193.5571722113503 363.239686888454 192.10850293542074 363.80476516634053Q190.65983365949117 364.369843444227 188.86124266144813 364.369843444227ZM216.014843444227 364.36Q213.11515655577298 364.36 211.05570450097846 363.044686888454Q208.99625244618395 361.729373776908 207.90172211350293 359.3844520547945Q206.8071917808219 357.039530332681 206.8071917808219 353.940156555773Q206.8071917808219 350.80046966731896 208.01656555772993 348.4803913894325Q209.22593933463796 346.160313111546 211.40984344422702 344.880156555773Q213.59374755381606 343.6 216.48265166340508 343.6Q219.0518688845401 343.6 221.16592954990216 344.7303913894325Q223.27999021526418 345.860782778865 224.3196771037182 348.06109589041097L221.21891389432486 349.19780821917806Q220.6278180039139 348.00483365949117 219.40601761252447 347.2384246575342Q218.18421722113504 346.4720156555773 216.3621819960861 346.4720156555773Q214.70045988258317 346.4720156555773 213.34412915851271 347.3129549902153Q211.98779843444228 348.15389432485324 211.1869373776908 349.82077299412913Q210.38607632093934 351.4876516634051 210.38607632093934 353.940156555773Q210.38607632093934 356.3223483365949 211.1367808219178 358.0091487279843Q211.88748532289628 359.6959491193738 213.22881604696673 360.59196673189825Q214.57014677103717 361.4879843444227 216.3317123287671 361.4879843444227Q217.26265166340508 361.4879843444227 218.22898238747553 361.26767123287675Q219.195313111546 361.0473581213307 219.99148727984345 360.52634050880624Q220.7876614481409 360.0053228962818 221.27844422700588 359.1083659491194Q221.76922700587085 358.21140900195695 221.76922700587085 356.84827788649704V356.2178082191781H216.3621819960861V353.3251663405088H225.11842465753423V364.0H223.00625244618396L222.28578277886498 361.57843444227007Q221.32578277886498 363.029686888454 219.71 363.694843444227Q218.09421722113504 364.36 216.014843444227 364.36ZM229.1179745596869 364.0V349.12H231.52873776908024L232.33873776908024 351.870156555773Q232.85905088062623 350.8717221135029 233.5945205479452 350.1868786692759Q234.3299902152642 349.5020352250489 235.3054598825832 349.1516438356165Q236.28092954990217 348.801252446184 237.48139921722114 348.82093933463796V352.07076320939336Q235.60873776908025 352.0018590998043 234.47295499021527 352.56412915851274Q233.3371722113503 353.12639921722115 232.8222504892368 354.29945205479453Q232.3073287671233 355.4725048923679 232.3073287671233 357.2457925636008V364.0ZM246.92171232876711 364.36Q244.5620254403131 364.36 242.86819960861055 363.35453033268107Q241.17437377690803 362.34906066536206 240.260313111546 360.58913894324854Q239.34625244618394 358.829217221135 239.34625244618394 356.55062622309197Q239.34625244618394 354.18062622309196 240.35054794520548 352.4507045009785Q241.35484344422701 350.720782778865 243.04890410958905 349.77086105675147Q244.74296477495108 348.82093933463796 246.8223385518591 348.82093933463796Q248.61202544031312 348.82093933463796 250.00139921722115 349.51117416829743Q251.39077299412915 350.20140900195696 252.3200684931507 351.39625244618395Q253.24936399217222 352.59109589041094 253.67897260273975 354.1452348336595Q254.10858121330725 355.69937377690803 253.97873776908023 357.4173385518591H242.5867025440313Q242.72638943248532 358.670782778865 243.1721722113503 359.5028180039139Q243.61795499021525 360.3348532289628 244.23905088062622 360.8207142857143Q244.8601467710372 361.30657534246575 245.56116438356165 361.50673189823874Q246.2621819960861 361.70688845401173 246.8823385518591 361.70688845401173Q248.07343444227007 361.70688845401173 248.89890410958904 361.3314187866928Q249.724373776908 360.95594911937377 250.204843444227 360.3550097847358L253.02858121330723 361.2718786692759Q252.10045988258318 362.69968688845404 250.51679060665361 363.529843444227Q248.93312133072408 364.36 246.92171232876711 364.36ZM242.5970156555773 355.16125244618394H250.79687866927594Q250.7771917808219 354.14078277886495 250.27680039138943 353.28413894324854Q249.77640900195695 352.42749510763207 248.910156555773 351.90600782778864Q248.04390410958905 351.3845205479452 246.8617123287671 351.3845205479452Q245.92092954990216 351.3845205479452 245.0148336594912 351.7400684931507Q244.10873776908022 352.09561643835616 243.46279843444228 352.9171037181996Q242.8168590998043 353.73859099804304 242.5970156555773 355.16125244618394ZM263.76171232876715 364.36Q261.40202544031314 364.36 259.7081996086106 363.35453033268107Q258.01437377690803 362.34906066536206 257.10031311154603 360.58913894324854Q256.18625244618397 358.829217221135 256.18625244618397 356.55062622309197Q256.18625244618397 354.18062622309196 257.1905479452055 352.4507045009785Q258.194843444227 350.720782778865 259.888904109589 349.77086105675147Q261.58296477495105 348.82093933463796 263.6623385518591 348.82093933463796Q265.4520254403131 348.82093933463796 266.8413992172211 349.51117416829743Q268.23077299412915 350.20140900195696 269.1600684931507 351.39625244618395Q270.0893639921722 352.59109589041094 270.5189726027397 354.1452348336595Q270.94858121330725 355.69937377690803 270.81873776908026 357.4173385518591H259.4267025440313Q259.5663894324853 358.670782778865 260.0121722113503 359.5028180039139Q260.4579549902153 360.3348532289628 261.07905088062626 360.8207142857143Q261.70014677103717 361.30657534246575 262.40116438356165 361.50673189823874Q263.10218199608613 361.70688845401173 263.7223385518591 361.70688845401173Q264.91343444227005 361.70688845401173 265.73890410958904 361.3314187866928Q266.56437377690804 360.95594911937377 267.044843444227 360.3550097847358L269.86858121330727 361.2718786692759Q268.9404598825832 362.69968688845404 267.3567906066536 363.529843444227Q265.77312133072405 364.36 263.76171232876715 364.36ZM259.4370156555773 355.16125244618394H267.6368786692759Q267.61719178082194 354.14078277886495 267.11680039138946 353.28413894324854Q266.6164090019569 352.42749510763207 265.75015655577295 351.90600782778864Q264.883904109589 351.3845205479452 263.70171232876714 351.3845205479452Q262.76092954990213 351.3845205479452 261.8548336594912 351.7400684931507Q260.94873776908025 352.09561643835616 260.30279843444225 352.9171037181996Q259.6568590998043 353.73859099804304 259.4370156555773 355.16125244618394ZM273.99797455968684 364.0V349.12H276.5568590998043L277.1873287671233 351.28140900195694Q277.57779843444223 350.61062622309197 278.2227984344422 350.0605479452055Q278.86779843444225 349.510469667319 279.78279843444227 349.16570450097845Q280.69779843444223 348.82093933463796 281.9184246575342 348.82093933463796Q283.75779843444224 348.82093933463796 284.84272015655574 349.540939334638Q285.92764187866925 350.26093933463795 286.3977984344423 351.575313111546Q286.86795499021525 352.88968688845404 286.86795499021525 354.69812133072406V364.0H283.67860078277886V355.57608610567513Q283.67860078277886 354.46561643835616 283.49813111545984 353.5250684931507Q283.3176614481409 352.5845205479452 282.6914090019569 352.0091291585127Q282.06515655577294 351.4337377690802 280.73343444227004 351.4337377690802Q279.0313992172211 351.4337377690802 278.10936399217223 352.6098336594912Q277.1873287671233 353.78592954990216 277.1873287671233 356.06780821917806V364.0ZM297.77171232876714 364.36Q295.41202544031313 364.36 293.7181996086106 363.35453033268107Q292.024373776908 362.34906066536206 291.110313111546 360.58913894324854Q290.19625244618396 358.829217221135 290.19625244618396 356.55062622309197Q290.19625244618396 354.18062622309196 291.20054794520547 352.4507045009785Q292.204843444227 350.720782778865 293.898904109589 349.77086105675147Q295.59296477495104 348.82093933463796 297.67233855185907 348.82093933463796Q299.4620254403131 348.82093933463796 300.8513992172211 349.51117416829743Q302.24077299412914 350.20140900195696 303.17006849315067 351.39625244618395Q304.0993639921722 352.59109589041094 304.5289726027397 354.1452348336595Q304.95858121330724 355.69937377690803 304.82873776908025 357.4173385518591H293.4367025440313Q293.5763894324853 358.670782778865 294.02217221135027 359.5028180039139Q294.4679549902153 360.3348532289628 295.08905088062625 360.8207142857143Q295.71014677103716 361.30657534246575 296.41116438356164 361.50673189823874Q297.1121819960861 361.70688845401173 297.7323385518591 361.70688845401173Q298.92343444227004 361.70688845401173 299.74890410958903 361.3314187866928Q300.57437377690803 360.95594911937377 301.054843444227 360.3550097847358L303.87858121330726 361.2718786692759Q302.9504598825832 362.69968688845404 301.3667906066536 363.529843444227Q299.78312133072404 364.36 297.77171232876714 364.36ZM293.4470156555773 355.16125244618394H301.6468786692759Q301.62719178082193 354.14078277886495 301.12680039138945 353.28413894324854Q300.6264090019569 352.42749510763207 299.76015655577294 351.90600782778864Q298.893904109589 351.3845205479452 297.71171232876713 351.3845205479452Q296.7709295499021 351.3845205479452 295.8648336594912 351.7400684931507Q294.95873776908024 352.09561643835616 294.31279843444224 352.9171037181996Q293.6668590998043 353.73859099804304 293.4470156555773 355.16125244618394ZM308.00797455968683 364.0V349.12H310.4187377690802L311.2287377690802 351.870156555773Q311.7490508806262 350.8717221135029 312.4845205479452 350.1868786692759Q313.21999021526415 349.5020352250489 314.1954598825831 349.1516438356165Q315.1709295499021 348.801252446184 316.3713992172211 348.82093933463796V352.07076320939336Q314.4987377690802 352.0018590998043 313.36295499021526 352.56412915851274Q312.22717221135025 353.12639921722115 311.7122504892368 354.29945205479453Q311.1973287671233 355.4725048923679 311.1973287671233 357.2457925636008V364.0ZM328.5484442270058 364.0V343.96H336.3699902152641Q338.52999021526415 343.96 340.2292074363992 344.614843444227Q341.9284246575342 345.26968688845403 342.9076418786692 346.63398238747556Q343.88685909980427 347.9982778864971 343.88685909980427 350.16718199608613Q343.88685909980427 352.31592954990214 342.9076418786692 353.6903033268102Q341.9284246575342 355.0646771037182 340.2292074363992 355.7195205479452Q338.52999021526415 356.3743639921722 336.3699902152641 356.3743639921722H331.9984246575342V364.0ZM331.9984246575342 353.4226614481409H336.2396771037182Q338.033590998043 353.4226614481409 339.17570450097844 352.69656555772997Q340.3178180039138 351.970469667319 340.3178180039138 350.16718199608613Q340.3178180039138 348.3638943248532 339.17570450097844 347.6377984344423Q338.033590998043 346.9117025440313 336.2396771037182 346.9117025440313H331.9984246575342ZM351.0565655577299 364.36Q349.6465655577299 364.36 348.4664872798434 363.8502348336595Q347.28640900195694 363.340469667319 346.5863307240704 362.385626223092Q345.8862524461839 361.43078277886497 345.8862524461839 360.08078277886494Q345.8862524461839 358.31078277886496 347.12117416829744 357.230782778865Q348.3560958904109 356.150782778865 350.6412524461839 355.5557045009785Q352.9264090019569 354.960626223092 356.0473483365949 354.690156555773V354.35125244618393Q356.0473483365949 352.869530332681 355.2666438356164 352.02741682974556Q354.4859393346379 351.1853033268102 352.883277886497 351.1853033268102Q351.6509295499021 351.1853033268102 350.83506849315063 351.74124266144815Q350.0192074363992 352.2971819960861 349.7792074363992 353.31812133072407L346.8865655577299 352.3815655577299Q347.52593933463794 350.74046966731896 349.13 349.78070450097846Q350.734060665362 348.82093933463796 352.9015557729941 348.82093933463796Q356.0407729941291 348.82093933463796 357.5639726027397 350.2813307240705Q359.08717221135026 351.74172211350293 359.08717221135026 354.91V358.32109589041096Q359.08717221135026 359.4625048923679 359.15725048923673 360.5019569471624Q359.22732876712325 361.54140900195694 359.3574070450097 362.4205479452055Q359.48748532289625 363.299686888454 359.61732876712324 364.0H356.6773483365949L356.0970352250489 362.03874755381605Q355.3981311154599 363.16843444227004 354.1432876712329 363.764217221135Q352.88844422700583 364.36 351.0565655577299 364.36ZM352.00061643835613 361.9857925636008Q353.11202544031306 361.9857925636008 354.033590998043 361.60516634050884Q354.955156555773 361.22454011741684 355.5012524461839 360.3282876712329Q356.0473483365949 359.43203522504893 356.0473483365949 357.88V356.9265557729941Q352.8420254403131 357.1871819960861 351.0741291585127 357.8535127201566Q349.3062328767123 358.519843444227 349.3062328767123 359.93219178082194Q349.3062328767123 360.8537573385519 350.0372504892367 361.4197749510763Q350.76826810176124 361.9857925636008 352.00061643835613 361.9857925636008ZM368.9212426614481 364.369843444227Q367.47374755381605 364.369843444227 366.15 363.9500782778865Q364.82625244618396 363.530313111546 363.8217221135029 362.695469667319Q362.81719178082193 361.86062622309197 362.2973483365949 360.620313111546L365.19983365949116 359.5529745596869Q365.51014677103717 360.6845401174168 366.61077299412915 361.2702446183953Q367.7113992172211 361.8559491193738 368.9610861056751 361.8559491193738Q370.29327788649704 361.8559491193738 371.25421722113504 361.31454011741687Q372.215156555773 360.7731311154599 372.215156555773 359.83140900195696Q372.215156555773 359.02890410958906 371.533590998043 358.57796477495106Q370.85202544031307 358.1270254403131 369.3201467710372 357.81624266144814L367.314373776908 357.4065557729941Q365.99531311154595 357.11639921722116 364.96078277886494 356.61179060665364Q363.9262524461839 356.1071819960861 363.3314090019569 355.2725733855186Q362.73656555772993 354.43796477495107 362.73656555772993 353.17749510763207Q362.73656555772993 351.78906066536206 363.58054794520547 350.80468688845406Q364.424530332681 349.820313111546 365.81319960861055 349.300469667319Q367.2018688845401 348.780626223092 368.8307729941291 348.780626223092Q370.7892074363992 348.780626223092 372.4677984344422 349.5505479452055Q374.1463894324853 350.320469667319 374.89545009784734 352.008904109589L372.03327788649705 353.05608610567515Q371.66296477495104 352.16545988258315 370.74163405088063 351.7250684931507Q369.8203033268102 351.2846771037182 368.6803033268102 351.2846771037182Q367.4399902152642 351.2846771037182 366.64850293542077 351.75553816046965Q365.8570156555773 352.2263992172211 365.8570156555773 353.0584344422701Q365.8570156555773 353.760156555773 366.41318982387475 354.1410176125245Q366.9693639921722 354.5218786692759 368.16092954990216 354.7825048923679L370.2060763209393 355.2020352250489Q371.8448238747554 355.5320352250489 372.9897455968689 356.0469569471624Q374.1346673189824 356.5618786692759 374.74005870841484 357.4168786692759Q375.34545009784733 358.2718786692759 375.34545009784733 359.6523483365949Q375.34545009784733 361.11062622309197 374.4813111545988 362.175156555773Q373.6171722113503 363.239686888454 372.16850293542075 363.80476516634053Q370.7198336594912 364.369843444227 368.9212426614481 364.369843444227ZM383.4695205479452 364.0Q381.9217123287671 364.0 381.05335616438356 363.705156555773Q380.185 363.410313111546 379.84093933463794 362.5658610567515Q379.49687866927593 361.72140900195694 379.49687866927593 360.1225048923679V351.6123287671233H376.9965655577299V349.12H379.49687866927593V345.4H382.6862328767123V349.12H385.82545009784735V351.6123287671233H382.6862328767123V359.44657534246574Q382.6862328767123 360.6376712328767 383.01060665362036 360.96274951076316Q383.3349804305284 361.2878277886497 384.3441976516634 361.2878277886497H385.82545009784735V364.0ZM394.08593933463794 364.36Q392.2671917808219 364.36 391.19258317025435 363.625Q390.11797455968684 362.89 389.65297455968687 361.5505479452055Q389.1879745596869 360.21109589041095 389.1879745596869 358.4228180039139V349.12H392.3773287671233V357.54485322896284Q392.3773287671233 358.6553228962818 392.5528767123287 359.6157925636008Q392.7284246575342 360.5762622309198 393.3394422700587 361.1415753424658Q393.9504598825832 361.70688845401173 395.2217123287671 361.70688845401173Q396.88343444227 361.70688845401173 397.7555479452054 360.5750880626223Q398.6276614481409 359.4432876712329 398.6276614481409 357.17172211350294V349.12H401.82685909980427V364.0H399.2576614481409L398.6276614481409 361.859686888454Q397.98781800391384 362.94953033268104 396.94227005870835 363.65476516634055Q395.8967221135029 364.36 394.08593933463794 364.36ZM406.1779745596869 364.0V349.12H408.5887377690803L409.3987377690803 351.870156555773Q409.9190508806263 350.8717221135029 410.65452054794525 350.1868786692759Q411.3899902152642 349.5020352250489 412.3654598825832 349.1516438356165Q413.34092954990217 348.801252446184 414.54139921722117 348.82093933463796V352.07076320939336Q412.6687377690803 352.0018590998043 411.53295499021533 352.56412915851274Q410.3971722113503 353.12639921722115 409.88225048923687 354.29945205479453Q409.36732876712335 355.4725048923679 409.36732876712335 357.2457925636008V364.0ZM423.9817123287671 364.36Q421.6220254403131 364.36 419.92819960861056 363.35453033268107Q418.234373776908 362.34906066536206 417.32031311154594 360.58913894324854Q416.40625244618394 358.829217221135 416.40625244618394 356.55062622309197Q416.40625244618394 354.18062622309196 417.41054794520545 352.4507045009785Q418.41484344422696 350.720782778865 420.108904109589 349.77086105675147Q421.802964774951 348.82093933463796 423.88233855185905 348.82093933463796Q425.67202544031306 348.82093933463796 427.0613992172211 349.51117416829743Q428.4507729941291 350.20140900195696 429.38006849315065 351.39625244618395Q430.30936399217217 352.59109589041094 430.7389726027397 354.1452348336595Q431.1685812133072 355.69937377690803 431.0387377690802 357.4173385518591H419.64670254403126Q419.7863894324853 358.670782778865 420.2321722113503 359.5028180039139Q420.67795499021526 360.3348532289628 421.29905088062617 360.8207142857143Q421.92014677103714 361.30657534246575 422.6211643835616 361.50673189823874Q423.3221819960861 361.70688845401173 423.94233855185905 361.70688845401173Q425.13343444227 361.70688845401173 425.958904109589 361.3314187866928Q426.784373776908 360.95594911937377 427.264843444227 360.3550097847358L430.08858121330724 361.2718786692759Q429.16045988258315 362.69968688845404 427.5767906066536 363.529843444227Q425.993121330724 364.36 423.9817123287671 364.36ZM419.65701565557725 355.16125244618394H427.8568786692759Q427.8371917808219 354.14078277886495 427.3368003913894 353.28413894324854Q426.8364090019569 352.42749510763207 425.970156555773 351.90600782778864Q425.103904109589 351.3845205479452 423.9217123287671 351.3845205479452Q422.9809295499021 351.3845205479452 422.07483365949116 351.7400684931507Q421.1687377690802 352.09561643835616 420.5227984344423 352.9171037181996Q419.8768590998043 353.73859099804304 419.65701565557725 355.16125244618394ZM439.6512426614481 364.369843444227Q438.2037475538161 364.369843444227 436.88 363.9500782778865Q435.556252446184 363.530313111546 434.55172211350293 362.695469667319Q433.54719178082195 361.86062622309197 433.0273483365949 360.620313111546L435.9298336594912 359.5529745596869Q436.2401467710372 360.6845401174168 437.34077299412917 361.2702446183953Q438.44139921722115 361.8559491193738 439.69108610567514 361.8559491193738Q441.02327788649706 361.8559491193738 441.98421722113505 361.31454011741687Q442.945156555773 360.7731311154599 442.945156555773 359.83140900195696Q442.945156555773 359.02890410958906 442.263590998043 358.57796477495106Q441.5820254403131 358.1270254403131 440.0501467710372 357.81624266144814L438.044373776908 357.4065557729941Q436.725313111546 357.11639921722116 435.69078277886496 356.61179060665364Q434.65625244618394 356.1071819960861 434.0614090019569 355.2725733855186Q433.46656555772995 354.43796477495107 433.46656555772995 353.17749510763207Q433.46656555772995 351.78906066536206 434.3105479452055 350.80468688845406Q435.154530332681 349.820313111546 436.54319960861056 349.300469667319Q437.9318688845401 348.780626223092 439.56077299412914 348.780626223092Q441.5192074363992 348.780626223092 443.19779843444223 349.5505479452055Q444.8763894324853 350.320469667319 445.62545009784736 352.008904109589L442.76327788649706 353.05608610567515Q442.39296477495105 352.16545988258315 441.47163405088065 351.7250684931507Q440.5503033268102 351.2846771037182 439.4103033268102 351.2846771037182Q438.1699902152642 351.2846771037182 437.3785029354208 351.75553816046965Q436.5870156555773 352.2263992172211 436.5870156555773 353.0584344422701Q436.5870156555773 353.760156555773 437.14318982387476 354.1410176125245Q437.6993639921722 354.5218786692759 438.8909295499022 354.7825048923679L440.9360763209393 355.2020352250489Q442.5748238747554 355.5320352250489 443.7197455968689 356.0469569471624Q444.8646673189824 356.5618786692759 445.47005870841485 357.4168786692759Q446.07545009784735 358.2718786692759 446.07545009784735 359.6523483365949Q446.07545009784735 361.11062622309197 445.21131115459883 362.175156555773Q444.3471722113503 363.239686888454 442.89850293542077 363.80476516634053Q441.4498336594912 364.369843444227 439.6512426614481 364.369843444227Z" fill="#76672F"/></svg>
